<mxfile host="app.diagrams.net" modified="2021-02-15T08:53:48.622Z" agent="5.0 (Windows NT 10.0; Win64; x64) AppleWebKit/537.36 (KHTML, like Gecko) Chrome/87.0.4280.141 Safari/537.36 OPR/73.0.3856.344" etag="aAZyNYp1KBmKpqBUUjrv" version="14.3.1" type="github">
  <diagram id="WBGcnLlhVLOIb4fL9wOE" name="Page-1">
    <mxGraphModel dx="1120" dy="1783" grid="1" gridSize="10" guides="1" tooltips="1" connect="1" arrows="1" fold="1" page="1" pageScale="1" pageWidth="850" pageHeight="1100" math="0" shadow="0">
      <root>
        <mxCell id="0" />
        <mxCell id="1" parent="0" />
        <mxCell id="AUXzKnsmWjilt3kzkGAx-1" value="" style="rounded=0;whiteSpace=wrap;html=1;rotation=-45;" vertex="1" parent="1">
          <mxGeometry x="168.8" y="465.74" width="220.94" height="100" as="geometry" />
        </mxCell>
        <mxCell id="AUXzKnsmWjilt3kzkGAx-2" value="" style="endArrow=none;html=1;exitX=0.5;exitY=0;exitDx=0;exitDy=0;" edge="1" parent="1" source="AUXzKnsmWjilt3kzkGAx-1">
          <mxGeometry width="50" height="50" relative="1" as="geometry">
            <mxPoint x="400" y="630" as="sourcePoint" />
            <mxPoint x="240" y="320" as="targetPoint" />
            <Array as="points">
              <mxPoint x="160" y="400" />
            </Array>
          </mxGeometry>
        </mxCell>
        <mxCell id="AUXzKnsmWjilt3kzkGAx-3" value="" style="ellipse;whiteSpace=wrap;html=1;aspect=fixed;" vertex="1" parent="1">
          <mxGeometry x="110" y="395.74" width="89.32" height="89.32" as="geometry" />
        </mxCell>
        <mxCell id="AUXzKnsmWjilt3kzkGAx-5" value="" style="rounded=0;whiteSpace=wrap;html=1;rotation=-45;" vertex="1" parent="1">
          <mxGeometry x="227.96" y="179.23" width="145.61" height="200" as="geometry" />
        </mxCell>
        <mxCell id="AUXzKnsmWjilt3kzkGAx-7" value="" style="verticalLabelPosition=bottom;verticalAlign=top;html=1;shape=mxgraph.basic.polygon;polyCoords=[[0.29,0],[0.72,0],[1,0.29],[1,0.72],[0.72,1],[0.29,1],[0,0.72],[0,0.29]];polyline=0;" vertex="1" parent="1">
          <mxGeometry x="280" y="-50" width="280" height="280" as="geometry" />
        </mxCell>
        <mxCell id="AUXzKnsmWjilt3kzkGAx-8" value="" style="triangle;whiteSpace=wrap;html=1;rotation=-45;" vertex="1" parent="1">
          <mxGeometry x="402.67" y="179.23" width="84.69" height="163.68" as="geometry" />
        </mxCell>
        <mxCell id="AUXzKnsmWjilt3kzkGAx-10" value="" style="rounded=0;whiteSpace=wrap;html=1;" vertex="1" parent="1">
          <mxGeometry x="560" y="150" width="650" height="210" as="geometry" />
        </mxCell>
        <mxCell id="AUXzKnsmWjilt3kzkGAx-11" value="" style="triangle;whiteSpace=wrap;html=1;rotation=45;" vertex="1" parent="1">
          <mxGeometry x="513.23" y="160" width="55.67" height="108.12" as="geometry" />
        </mxCell>
        <mxCell id="AUXzKnsmWjilt3kzkGAx-12" value="" style="rounded=0;whiteSpace=wrap;html=1;rotation=-45;" vertex="1" parent="1">
          <mxGeometry x="339.73" y="339.15" width="140" height="99.57" as="geometry" />
        </mxCell>
        <mxCell id="AUXzKnsmWjilt3kzkGAx-13" value="" style="rounded=0;whiteSpace=wrap;html=1;rotation=0;" vertex="1" parent="1">
          <mxGeometry x="480" y="230" width="80" height="130" as="geometry" />
        </mxCell>
        <mxCell id="AUXzKnsmWjilt3kzkGAx-14" value="Master" style="text;html=1;strokeColor=none;fillColor=none;align=center;verticalAlign=middle;whiteSpace=wrap;rounded=0;" vertex="1" parent="1">
          <mxGeometry x="259.27" y="245" width="40" height="20" as="geometry" />
        </mxCell>
        <mxCell id="AUXzKnsmWjilt3kzkGAx-16" value="" style="rounded=0;whiteSpace=wrap;html=1;rotation=-45;" vertex="1" parent="1">
          <mxGeometry x="119.32" y="288.34" width="107.96" height="88.24" as="geometry" />
        </mxCell>
        <mxCell id="AUXzKnsmWjilt3kzkGAx-15" value="Master Bath" style="text;html=1;strokeColor=none;fillColor=none;align=center;verticalAlign=middle;whiteSpace=wrap;rounded=0;" vertex="1" parent="1">
          <mxGeometry x="153.3" y="319.15" width="40" height="20" as="geometry" />
        </mxCell>
        <mxCell id="AUXzKnsmWjilt3kzkGAx-17" value="Private Study" style="text;html=1;strokeColor=none;fillColor=none;align=center;verticalAlign=middle;whiteSpace=wrap;rounded=0;" vertex="1" parent="1">
          <mxGeometry x="134.66000000000003" y="418.71999999999997" width="40" height="20" as="geometry" />
        </mxCell>
        <mxCell id="AUXzKnsmWjilt3kzkGAx-18" value="" style="ellipse;whiteSpace=wrap;html=1;aspect=fixed;" vertex="1" parent="1">
          <mxGeometry x="560" y="-100" width="260" height="260" as="geometry" />
        </mxCell>
      </root>
    </mxGraphModel>
  </diagram>
</mxfile>
